<?xml version="1.0" encoding="utf-8"?>
<!-- Generator: Adobe Illustrator 16.0.3, SVG Export Plug-In . SVG Version: 6.00 Build 0)  -->
<!DOCTYPE svg PUBLIC "-//W3C//DTD SVG 1.1//EN" "http://www.w3.org/Graphics/SVG/1.1/DTD/svg11.dtd">
<svg version="1.1" id="Capa_1" xmlns="http://www.w3.org/2000/svg" xmlns:xlink="http://www.w3.org/1999/xlink" x="0px" y="0px"
	 width="841.89px" height="595.28px" viewBox="0 0 841.89 595.28" enable-background="new 0 0 841.89 595.28" xml:space="preserve">
<g id="css">
	<polygon fill="#1B84B7" points="206.033,63.107 614.735,63.107 579.345,479.801 410.384,526.607 242.565,480.941 	"/>
	<polygon fill="#25A8CA" points="585.878,96.214 415.013,96.214 415.013,492.74 553.912,453.924 	"/>
	<polygon fill="#FFFFFF" points="403.789,158.308 542.496,158.308 538.501,207.398 415.205,262.196 533.934,262.196 
		521.946,420.311 415.205,449.992 403.789,445.998 400.364,391.77 414.634,394.625 471.43,378.641 477.424,312.998 404.359,311.285 
		404.359,214.818 422.625,207.968 400.364,206.827 	"/>
	<polygon fill="#EFEEEE" points="284.489,158.308 289.626,207.398 415.205,207.398 415.205,158.308 	"/>
	<polygon fill="#EFEEEE" points="415.205,311.54 298.759,311.54 294.193,261.625 415.205,210.751 	"/>
	<polygon fill="#EFEEEE" points="301.613,338.436 354.699,338.436 358.124,378.641 414.634,394.625 415.205,449.992 309.034,419.17 
			"/>
</g>
</svg>
