<?xml version="1.0" encoding="utf-8"?>
<!-- Generator: Adobe Illustrator 16.0.3, SVG Export Plug-In . SVG Version: 6.00 Build 0)  -->
<!DOCTYPE svg PUBLIC "-//W3C//DTD SVG 1.1//EN" "http://www.w3.org/Graphics/SVG/1.1/DTD/svg11.dtd">
<svg version="1.1" id="Capa_1" xmlns="http://www.w3.org/2000/svg" xmlns:xlink="http://www.w3.org/1999/xlink" x="0px" y="0px"
	 width="841.89px" height="595.28px" viewBox="0 0 841.89 595.28" enable-background="new 0 0 841.89 595.28" xml:space="preserve">
<g id="html">
	<polygon fill="#E44D25" points="189.476,35 612.285,35 575.674,466.078 400.881,514.5 227.268,467.259 	"/>
	<polygon fill="#F06429" points="577.644,69.25 400.881,69.25 400.881,479.464 544.575,439.308 	"/>
	<g>
		<g>
			<polygon fill="#FFFFFF" points="536.109,120.034 405.604,120.034 393.204,120.034 393.204,172.59 532.566,172.59 			"/>
			<polygon fill="#FFFFFF" points="389.661,228.099 527.251,228.099 513.67,392.263 401.471,424.742 377.259,418.837 383.165,365.1 
				401.471,365.1 459.933,348.636 468.199,283.017 381.394,283.017 			"/>
		</g>
	</g>
	<g>
		<g>
			<polygon fill="#ECEBEB" points="267.423,120.034 282.777,281.836 400.881,283.017 400.881,228.099 331.2,228.099 326.475,172.59 
				400.881,172.59 400.881,120.034 			"/>
			<polygon fill="#ECEBEB" points="283.958,309 338.876,309 343.6,348.636 401.471,365.1 401.471,424.742 292.816,392.854 			"/>
		</g>
	</g>
</g>
</svg>
