<?xml version="1.0" encoding="utf-8"?>
<!-- Generator: Adobe Illustrator 16.0.3, SVG Export Plug-In . SVG Version: 6.00 Build 0)  -->
<!DOCTYPE svg PUBLIC "-//W3C//DTD SVG 1.1//EN" "http://www.w3.org/Graphics/SVG/1.1/DTD/svg11.dtd">
<svg version="1.1" id="Capa_1" xmlns="http://www.w3.org/2000/svg" xmlns:xlink="http://www.w3.org/1999/xlink" x="0px" y="0px"
	 width="841.89px" height="595.28px" viewBox="0 0 841.89 595.28" enable-background="new 0 0 841.89 595.28" xml:space="preserve">
<g id="jquery">
	<polygon fill="#C94340" points="217.692,67 599.941,67 566.841,456.723 408.817,500.5 251.86,457.791 	"/>
	<polygon fill="#E94645" points="568.623,97.964 408.817,97.964 408.817,468.824 538.726,432.521 	"/>
	<polygon fill="#FFFFFF" points="528.937,135.869 416.824,135.869 385.504,135.869 385.504,176.088 482.311,178.937 
		475.904,323.436 428.213,323.436 431.06,283.575 398.316,282.15 396.893,421.667 408.283,421.667 418.247,370.415 509.36,370.415 	
		"/>
	<polygon fill="#F2E4E3" points="280.155,135.869 298.661,371.129 385.504,371.129 385.504,393.195 326.422,400.313 
		329.981,431.633 408.283,421.667 408.283,282.584 398.316,282.15 394.046,326.282 334.252,325.571 322.864,176.799 
		408.283,176.757 408.283,135.869 	"/>
</g>
</svg>
