<?xml version="1.0" encoding="utf-8"?>
<!-- Generator: Adobe Illustrator 16.0.3, SVG Export Plug-In . SVG Version: 6.00 Build 0)  -->
<!DOCTYPE svg PUBLIC "-//W3C//DTD SVG 1.1//EN" "http://www.w3.org/Graphics/SVG/1.1/DTD/svg11.dtd">
<svg version="1.1" id="Capa_1" xmlns="http://www.w3.org/2000/svg" xmlns:xlink="http://www.w3.org/1999/xlink" x="0px" y="0px"
	 width="841.89px" height="595.28px" viewBox="0 0 841.89 595.28" enable-background="new 0 0 841.89 595.28" xml:space="preserve">
<g id="php">
	<polygon fill="#85C320" points="221.219,71 634.33,71 598.559,492.189 427.774,539.5 258.146,493.343 	"/>
	<polygon fill="#76BF23" points="600.482,104.464 427.774,104.464 427.774,505.268 568.172,466.033 	"/>
	<g>
		<g>
			<polygon fill="#FFFFFF" points="558.492,145.429 430.981,145.429 418.866,145.429 418.866,196.779 555.03,196.779 			"/>
			<polygon fill="#FFFFFF" points="415.404,251.015 549.838,251.015 536.567,411.413 426.943,443.146 403.288,437.376 
				409.057,384.872 426.943,384.872 484.063,368.786 492.141,304.673 407.326,304.673 			"/>
		</g>
	</g>
	<g>
		<g>
			<polygon fill="#ECEBEB" points="295.971,145.429 310.972,303.52 426.366,304.673 426.366,251.015 358.284,251.015 
				353.668,196.779 426.366,196.779 426.366,145.429 			"/>
			<polygon fill="#ECEBEB" points="312.126,330.06 365.784,330.06 370.4,368.786 426.943,384.872 426.943,443.146 320.78,411.989 
							"/>
		</g>
	</g>
</g>
</svg>
